<?xml version="1.0" encoding="UTF-8" standalone="no"?>
<!-- Created with Inkscape (http://www.inkscape.org/) -->

<svg
   width="128"
   height="128"
   viewBox="0 0 128 128"
   version="1.1"
   id="svg1"
   xml:space="preserve"
   inkscape:export-filename="marker.png"
   inkscape:export-xdpi="96"
   inkscape:export-ydpi="96"
   inkscape:version="1.3.2 (091e20e, 2023-11-25, custom)"
   sodipodi:docname="marker.svg"
   xmlns:inkscape="http://www.inkscape.org/namespaces/inkscape"
   xmlns:sodipodi="http://sodipodi.sourceforge.net/DTD/sodipodi-0.dtd"
   xmlns="http://www.w3.org/2000/svg"
   xmlns:svg="http://www.w3.org/2000/svg"><sodipodi:namedview
     id="namedview1"
     pagecolor="#ffffff"
     bordercolor="#000000"
     borderopacity="0.25"
     inkscape:showpageshadow="2"
     inkscape:pageopacity="0.0"
     inkscape:pagecheckerboard="0"
     inkscape:deskcolor="#d1d1d1"
     inkscape:document-units="px"
     inkscape:zoom="5.3359373"
     inkscape:cx="58.939973"
     inkscape:cy="34.951685"
     inkscape:window-width="1920"
     inkscape:window-height="1027"
     inkscape:window-x="-8"
     inkscape:window-y="-8"
     inkscape:window-maximized="1"
     inkscape:current-layer="layer1"
     showgrid="true"><inkscape:grid
       id="grid2"
       units="px"
       originx="0"
       originy="0"
       spacingx="1"
       spacingy="1"
       empcolor="#0099e5"
       empopacity="0.30196078"
       color="#0099e5"
       opacity="0.14901961"
       empspacing="8"
       dotted="false"
       gridanglex="30"
       gridanglez="30"
       visible="true" /></sodipodi:namedview><defs
     id="defs1" /><g
     inkscape:label="Layer 1"
     inkscape:groupmode="layer"
     id="layer1"><path
       id="rect99"
       style="fill:#e5e5e5;fill-opacity:1;stroke-width:1.28445"
       d="M 4 2 C 2.8920033 2 2 2.8920033 2 4 L 2 12 L 4 12 L 4 5.7148438 C 4 4.7651322 4.7651322 4 5.7148438 4 L 12 4 L 12 2 L 4 2 z M 20 2 L 20 4 L 26.285156 4 C 27.234868 4 28 4.7651322 28 5.7148438 L 28 12 L 30 12 L 30 4 C 30 2.8920033 29.107997 2 28 2 L 20 2 z M 2 20 L 2 28 C 2 29.107997 2.8920033 30 4 30 L 12 30 L 12 28 L 5.7148438 28 C 4.7651322 28 4 27.234868 4 26.285156 L 4 20 L 2 20 z M 28 20 L 28 26.285156 C 28 27.234868 27.234868 28 26.285156 28 L 20 28 L 20 30 L 28 30 C 29.107997 30 30 29.107997 30 28 L 30 20 L 28 20 z " /><path
       id="path3"
       style="fill:#e5e5e5;fill-opacity:1;stroke-width:1.28445"
       d="m 36,2 c -1.107997,0 -2,0.8920033 -2,2 v 7 h 2 V 5.7148438 C 36,4.7651322 36.765132,4 37.714844,4 H 43 V 2 Z m 17,0 v 2 h 5.285156 C 59.234868,4 60,4.7651322 60,5.7148438 V 11 h 2 V 4 C 62,2.8920033 61.107997,2 60,2 Z M 34,21 v 7 c 0,1.107997 0.892003,2 2,2 h 7 V 28 H 37.714844 C 36.765132,28 36,27.234868 36,26.285156 V 21 Z m 26,0 v 5.285156 C 60,27.234868 59.234868,28 58.285156,28 H 53 v 2 h 7 c 1.107997,0 2,-0.892003 2,-2 v -7 z"
       sodipodi:nodetypes="ssccssccsccssccssccssccsscccssccsscc" /><path
       id="path4"
       style="fill:#e5e5e5;fill-opacity:1;stroke-width:1.28445"
       d="m 68,2 c -1.107997,0 -2,0.8920033 -2,2 v 6 h 2 V 5.7148438 C 68,4.7651322 68.765132,4 69.714844,4 H 74 V 2 Z m 18,0 v 2 h 4.285156 C 91.234868,4 92,4.7651322 92,5.7148438 V 10 h 2 V 4 C 94,2.8920033 93.107997,2 92,2 Z M 66,22 v 6 c 0,1.107997 0.892003,2 2,2 h 6 V 28 H 69.714844 C 68.765132,28 68,27.234868 68,26.285156 V 22 Z m 26,0 v 4.285156 C 92,27.234868 91.234868,28 90.285156,28 H 86 v 2 h 6 c 1.107997,0 2,-0.892003 2,-2 v -6 z"
       sodipodi:nodetypes="ssccssccsccssccssccssccsscccssccsscc" /><path
       id="path5"
       style="fill:#e5e5e5;fill-opacity:1;stroke-width:1.28445"
       d="m 100,2 c -1.107997,0 -2,0.8920033 -2,2 v 7 h 2 V 5.7148438 C 100,4.7651322 100.76513,4 101.71484,4 H 107 V 2 Z m 17,0 v 2 h 5.28516 C 123.23487,4 124,4.7651322 124,5.7148438 V 11 h 2 V 4 c 0,-1.1079967 -0.892,-2 -2,-2 z M 98,21 v 7 c 0,1.107997 0.892003,2 2,2 h 7 v -2 h -5.28516 C 100.76513,28 100,27.234868 100,26.285156 V 21 Z m 26,0 v 5.285156 C 124,27.234868 123.23487,28 122.28516,28 H 117 v 2 h 7 c 1.108,0 2,-0.892003 2,-2 v -7 z"
       sodipodi:nodetypes="ssccssccsccssccssccssccsscccssccsscc" /></g></svg>
