<?xml version="1.0" encoding="UTF-8" standalone="no"?>
<!-- Created with Inkscape (http://www.inkscape.org/) -->

<svg
   width="128"
   height="128"
   viewBox="0 0 128 128"
   version="1.1"
   id="svg1"
   xml:space="preserve"
   inkscape:export-filename="menubar.png"
   inkscape:export-xdpi="192"
   inkscape:export-ydpi="192"
   inkscape:version="1.3.2 (091e20e, 2023-11-25, custom)"
   sodipodi:docname="menubar.svg"
   xmlns:inkscape="http://www.inkscape.org/namespaces/inkscape"
   xmlns:sodipodi="http://sodipodi.sourceforge.net/DTD/sodipodi-0.dtd"
   xmlns="http://www.w3.org/2000/svg"
   xmlns:svg="http://www.w3.org/2000/svg"><sodipodi:namedview
     id="namedview1"
     pagecolor="#ffffff"
     bordercolor="#000000"
     borderopacity="0.25"
     inkscape:showpageshadow="2"
     inkscape:pageopacity="0.0"
     inkscape:pagecheckerboard="0"
     inkscape:deskcolor="#d1d1d1"
     inkscape:document-units="px"
     inkscape:zoom="45.254834"
     inkscape:cx="108.59613"
     inkscape:cy="19.346"
     inkscape:window-width="1920"
     inkscape:window-height="1027"
     inkscape:window-x="-8"
     inkscape:window-y="-8"
     inkscape:window-maximized="1"
     inkscape:current-layer="layer1"
     showgrid="true"><inkscape:grid
       id="grid2"
       units="px"
       originx="0"
       originy="0"
       spacingx="1"
       spacingy="1"
       empcolor="#0099e5"
       empopacity="0.30196078"
       color="#0099e5"
       opacity="0.14901961"
       empspacing="8"
       dotted="false"
       gridanglex="30"
       gridanglez="30"
       visible="true" /></sodipodi:namedview><defs
     id="defs1"><inkscape:perspective
       sodipodi:type="inkscape:persp3d"
       inkscape:vp_x="0 : 64 : 1"
       inkscape:vp_y="0 : 1000 : 0"
       inkscape:vp_z="128 : 64 : 1"
       inkscape:persp3d-origin="64 : 42.666667 : 1"
       id="perspective27" /></defs><g
     inkscape:label="Layer 1"
     inkscape:groupmode="layer"
     id="layer1"><g
       id="g56"
       transform="matrix(1.416149,0,0,1.416149,-34.196049,-10.109608)"><path
         id="path55-1"
         style="fill:#8da0a3;fill-opacity:1;stroke:none;stroke-width:0.25;stroke-opacity:1"
         d="M 81.49102,19.081113 77.689165,20.324453 78,21.274917 l 3.801855,-1.24334 z"
         sodipodi:nodetypes="ccccc" /><path
         id="rect52"
         style="fill:#635b56;stroke-width:0.14397"
         d="m 85,13.725083 0.62167,1.900928 -8.554175,2.797514 -0.621669,-1.900928 z"
         sodipodi:nodetypes="ccccc" /><path
         id="path55"
         style="fill:#696e72;fill-opacity:1;stroke:none;stroke-width:0.25;stroke-opacity:1"
         d="m 79.918887,17.49102 -0.62167,-1.900927 -1.900928,0.621669 0.62167,1.900928 -0.328794,2.211763 3.801855,-1.24334 z"
         sodipodi:nodetypes="ccccccc" /></g><rect
       style="fill:#635b56;fill-opacity:1;stroke:none;stroke-width:0.14397;stroke-opacity:1"
       id="rect51"
       width="2"
       height="6.5"
       x="42"
       y="7" /><rect
       style="fill:#666666;fill-opacity:1;stroke:none;stroke-width:1.01527;stroke-opacity:1"
       id="rect2"
       width="16"
       height="16.492422"
       x="12"
       y="8.2462111"
       transform="matrix(1,0,-0.24253563,0.9701425,0,0)" /><rect
       style="fill:#e6e6e6;fill-opacity:1;stroke:none;stroke-width:0.20066;stroke-opacity:1"
       id="rect3"
       width="2"
       height="5.153882"
       x="19"
       y="17.523199"
       transform="matrix(1,0,-0.24253563,0.9701425,0,0)" /><rect
       style="fill:#e6e6e6;fill-opacity:1;stroke:none;stroke-width:0.20066;stroke-opacity:1"
       id="rect4"
       width="2"
       height="5.153882"
       x="19"
       y="10.307764"
       transform="matrix(1,0,-0.24253563,0.9701425,0,0)" /><path
       id="rect37"
       style="fill:#a57838;stroke-width:0.807041;fill-opacity:1"
       d="M 40,13.578947 48,6 56,13.578947 V 24 H 40 Z"
       sodipodi:nodetypes="cccccc" /><rect
       style="fill:#9e9b91;fill-opacity:1;stroke:none;stroke-width:0.374999;stroke-opacity:1"
       id="rect46"
       width="18"
       height="2"
       x="39"
       y="24" /><rect
       style="fill:#6e5534;fill-opacity:1;stroke:none;stroke-width:0.293424;stroke-opacity:1"
       id="rect38"
       width="6"
       height="9"
       x="45"
       y="15" /><path
       id="rect47"
       style="fill:#523622;fill-opacity:1;stroke-width:0.935414"
       d="m 48,5 10,10 -1,1 -9,-9 -9,9 -1,-1 z"
       sodipodi:nodetypes="ccccccc" /><rect
       style="fill:#8da0a3;fill-opacity:1;stroke:none;stroke-width:0.25;stroke-opacity:1"
       id="rect48"
       width="4"
       height="4"
       x="46"
       y="10"
       rx="2"
       ry="2" /><path
       id="rect50"
       style="fill:#696e72;fill-opacity:1;stroke:none;stroke-width:0.25;stroke-opacity:1"
       d="m 48,10 c -1.107999,0 -2,0.892001 -2,2 h 4 c 0,-1.107999 -0.892001,-2 -2,-2 z" /><path
       id="path52"
       style="fill:#6e5534;fill-opacity:1;stroke-width:0.538028"
       d="m 75,19 h 10 c 0,0 3,0 3,2.53033 C 88,24 85,24 85,24 H 75 Z"
       sodipodi:nodetypes="ccsccc" /><rect
       style="fill:#9e9b91;fill-opacity:1;stroke:none;stroke-width:0.374999;stroke-opacity:1"
       id="rect53"
       width="18"
       height="2"
       x="71"
       y="24" /><rect
       style="fill:#a57838;fill-opacity:1;stroke:none;stroke-width:1.25;stroke-opacity:1"
       id="rect56"
       width="5"
       height="5"
       x="72"
       y="19"
       rx="2.5"
       ry="2.5" /><path
       id="path59"
       style="fill:#6e5534;fill-opacity:1;stroke-width:0.538028"
       d="m 107,19 h 10 c 0,0 3,0 3,2.53033 C 120,24 117,24 117,24 h -10 z"
       sodipodi:nodetypes="ccsccc" /><rect
       style="fill:#9e9b91;fill-opacity:1;stroke:none;stroke-width:0.374999;stroke-opacity:1"
       id="rect59"
       width="18"
       height="2"
       x="103"
       y="24" /><rect
       style="fill:#a57838;fill-opacity:1;stroke:none;stroke-width:1.25;stroke-opacity:1"
       id="rect60"
       width="5"
       height="5"
       x="104"
       y="19"
       rx="2.5"
       ry="2.5" /><path
       id="path56"
       style="fill:#8da0a3;fill-opacity:1;stroke:none;stroke-width:0.354037;stroke-opacity:1"
       d="m 110,6.5 h -1 v 1 h 1 z"
       sodipodi:nodetypes="ccccc" /><path
       id="path57"
       style="fill:#635b56;stroke-width:0.203883"
       d="m 121,10.5 v 3 h -14 v -3.000001 z"
       sodipodi:nodetypes="ccccc" /><path
       id="path58"
       style="fill:#696e72;fill-opacity:1;stroke:none;stroke-width:0.354037;stroke-opacity:1"
       d="m 111,13.5 v -3 l -1,-3.0000001 -1,7e-7 L 108,10.5 v 2.999999 L 109,16.5 h 1 z"
       sodipodi:nodetypes="ccccccccc" /><path
       id="path60"
       style="fill:#8da0a3;fill-opacity:1;stroke:none;stroke-width:0.354037;stroke-opacity:1"
       d="m 110,16.5 h -1 v 1 h 1 z"
       sodipodi:nodetypes="ccccc" /></g></svg>
