<?xml version="1.0" encoding="UTF-8" standalone="no"?>
<!-- Created with Inkscape (http://www.inkscape.org/) -->

<svg
   width="128"
   height="128"
   viewBox="0 0 128 128"
   version="1.1"
   id="svg1"
   xml:space="preserve"
   inkscape:export-filename="street.png"
   inkscape:export-xdpi="96"
   inkscape:export-ydpi="96"
   inkscape:version="1.3.2 (091e20e, 2023-11-25, custom)"
   sodipodi:docname="street.svg"
   xmlns:inkscape="http://www.inkscape.org/namespaces/inkscape"
   xmlns:sodipodi="http://sodipodi.sourceforge.net/DTD/sodipodi-0.dtd"
   xmlns="http://www.w3.org/2000/svg"
   xmlns:svg="http://www.w3.org/2000/svg"><sodipodi:namedview
     id="namedview1"
     pagecolor="#ffffff"
     bordercolor="#000000"
     borderopacity="0.25"
     inkscape:showpageshadow="2"
     inkscape:pageopacity="0.0"
     inkscape:pagecheckerboard="0"
     inkscape:deskcolor="#d1d1d1"
     inkscape:document-units="px"
     inkscape:zoom="3.7730776"
     inkscape:cx="34.58715"
     inkscape:cy="66.656461"
     inkscape:window-width="1920"
     inkscape:window-height="1027"
     inkscape:window-x="-8"
     inkscape:window-y="-8"
     inkscape:window-maximized="1"
     inkscape:current-layer="layer1"
     showgrid="true"><inkscape:grid
       id="grid2"
       units="px"
       originx="0"
       originy="0"
       spacingx="1"
       spacingy="1"
       empcolor="#0099e5"
       empopacity="0.30196078"
       color="#0099e5"
       opacity="0.14901961"
       empspacing="8"
       dotted="false"
       gridanglex="30"
       gridanglez="30"
       visible="true" /></sodipodi:namedview><defs
     id="defs1" /><g
     inkscape:label="Layer 1"
     inkscape:groupmode="layer"
     id="layer1"><rect
       style="fill:#808080;fill-opacity:1;stroke-width:1.99909"
       id="rect8"
       width="31.985416"
       height="15.958069"
       x="32"
       y="42.001137" /><rect
       style="fill:#808080;fill-opacity:1;stroke-width:1.99909"
       id="rect9"
       width="31.985416"
       height="15.958069"
       x="66.010117"
       y="-87.979034"
       transform="rotate(90)" /><path
       id="path9"
       style="fill:#808080;fill-opacity:1;stroke-width:1.73126"
       d="m 72,40.009338 c 0,1.99909 0,1.99909 -1.99909,1.99909 l -6.032409,0.03514 v 15.95757 H 72 83.994529 c 1.99909,0 3.99817,-1.99909 3.99817,-3.99818 l -0.0351,-11.95939 V 34.012074 H 72"
       sodipodi:nodetypes="cccccccccc" /><path
       id="path10"
       style="fill:#808080;fill-opacity:1;stroke-width:1.73126"
       d="m 121.94439,10.021508 c -1.99909,0 -1.99909,0 -1.99909,-1.999089 l -0.0351,-6.032405 h -15.95761 v 8.031494 11.994531 c 0,1.999089 1.99909,3.998177 3.99818,3.998177 l 11.95939,-0.03514 h 8.03149 V 10.021508"
       sodipodi:nodetypes="cccccccccc" /><path
       id="path11"
       style="fill:#808080;fill-opacity:1;stroke-width:1.73126"
       d="m 55.957509,92.035358 c 0,-1.99908 0,-1.99908 1.99909,-1.99908 L 63.989,90.001178 V 74.043568 H 55.95751 43.96298 c -1.99909,0 -3.99818,1.99909 -3.99818,3.99817 L 40,90.001138 V 96 h 16"
       sodipodi:nodetypes="cccccccccc" /><path
       id="path12"
       style="fill:#808080;fill-opacity:1;stroke-width:1.73126"
       d="m 5.9973015,121.97996 c 1.99909,0 1.99909,0 1.99909,1.99909 l 0.0351,6.03241 H 23.989062 v -8.0315 -11.99453 c 0,-1.99909 -1.99909,-3.99817 -3.998181,-3.99817 l -11.9593895,0.0351 H -5e-7 v 15.95756"
       sodipodi:nodetypes="cccccccccc" /><path
       id="path13"
       style="fill:#808080;fill-opacity:1;stroke-width:1.73126"
       d="m 72.024861,97.998603 v 5.997277 c 0,1.99909 -10e-7,1.99909 -1.999088,1.99909 -1.999067,0.0184 -3.998143,0.0196 -5.997266,0.0196 v 0.0156 h -0.03514 v 15.95752 c 2.022574,-0.008 4.045038,0.006 6.067545,0.0196 1.999088,0 1.999089,1e-5 1.999089,1.99909 v 5.99726 H 88.01757 l -0.03514,-32.005007 z"
       sodipodi:nodetypes="csccccccscccc" /><path
       id="path14"
       style="fill:#808080;fill-opacity:1;stroke-width:1.73126"
       d="m 127.99575,42.025999 h -5.99726 c -1.99909,0 -1.99909,-2e-6 -1.99909,-1.999089 -0.0184,-1.999067 -0.0196,-3.998143 -0.0196,-5.997266 h -0.0156 v -0.03514 h -15.95753 c 0.008,2.022574 -0.006,4.045038 -0.0196,6.067546 0,1.999087 0,1.999088 -1.99909,1.999088 h -5.997264 v 15.957569 l 32.005004,-0.03514 z"
       sodipodi:nodetypes="csccccccscccc" /><path
       id="path15"
       style="fill:#808080;fill-opacity:1;stroke-width:1.73126"
       d="m 119.99269,98.006238 v -5.99727 c 1e-5,-1.99908 1e-5,-1.99908 1.99909,-1.99908 1.99907,-0.0184 4.0091,-0.0088 6.00822,-0.0088 -0.0203,-5.380034 -0.004,-10.632613 0,-16.013363 -2.02253,0.008 -4.02086,0.02328 -6.04337,0.0097 C 119.95756,73.997458 120,74.000228 120,72.001138 v -6 h -16 l 0.0351,32.005 z"
       sodipodi:nodetypes="csccccscccc" /><path
       id="path16"
       style="fill:#808080;fill-opacity:1;stroke-width:1.73126"
       d="m 31.994862,122.01508 h 5.997268 c 1.99908,0 1.99909,0 1.99909,1.99909 0.0184,1.99906 0.0196,3.99814 0.0196,5.99726 l 0.0156,-2e-5 10e-5,0.0351 h 15.95752 c -0.008,-2.02252 0.006,-4.04499 0.0196,-6.0675 0,-1.99909 0,-1.99909 1.99909,-1.99909 H 64 v -15.95756 l -32.005013,0.0351 z"
       sodipodi:nodetypes="csccccccscccc" /><path
       id="path17"
       style="fill:#808080;fill-opacity:1;stroke-width:1.73126"
       d="m 104.03155,97.990902 v 5.997268 c 0,1.99908 0,1.99908 -1.99909,1.99908 -1.99906,0.0184 -3.998141,0.0195 -5.99726,0.0195 v 0.0156 H 96 v 15.95758 c 2.02258,-0.008 4.04504,0.006 6.06755,0.0195 1.53473,0 1.88895,0.009 1.97176,0.91366 l -0.008,7.10222 h 15.95757 v -0.0195 h 0.0351 l -0.008,-7.06319 c 0.0828,-0.90456 0.43702,-0.91365 1.97176,-0.91365 2.0225,-0.0132 4.04497,-0.0273 6.06754,-0.0195 V 106.0419 h -0.0351 v -0.0156 c -1.99912,0 -3.9982,-0.001 -5.99726,-0.0195 -1.99909,0 -1.99909,0 -1.99909,-1.99909 v -5.997265 h -0.0351 v -0.01952 z" /><path
       id="path18"
       style="fill:#808080;fill-opacity:1;stroke-width:1.73126"
       d="m 43.996093,10.032065 c -1.999085,0 -3.998047,1.99896 -3.998047,3.998047 l 0.04883,7.970703 c 0,1.999086 1.998959,3.998047 3.998047,3.998047 L 64,26.001138 v -16 z"
       sodipodi:nodetypes="ccccccc" /><path
       id="path19"
       style="fill:#808080;fill-opacity:1;stroke-width:1.73126"
       d="m 19.941404,9.9851864 c -2.660354,-0.012781 -5.320345,0.018483 -7.980467,0.046879 -1.999087,0 -3.998048,1.99896 -3.998048,3.998047 l 0.04883,7.970703 c 0,1.999086 1.998961,3.998047 3.998048,3.998047 l 7.980467,0.0023 c 1.999085,0 3.998047,-2.048106 3.998047,-4.047193 L 23.9414,13.983242 c 0,-1.999086 -2.000912,-3.9980466 -4,-3.9980466 z"
       sodipodi:nodetypes="cccccccccc" /><path
       id="path20"
       style="fill:#808080;fill-opacity:1;stroke-width:1.73126"
       d="m 72.030904,22.005044 c 0,1.999086 1.998959,3.998048 3.998046,3.998048 l 7.970703,-0.04883 c 1.999086,0 3.998047,-1.998959 3.998047,-3.998047 L 88,2.001138 H 72 Z"
       sodipodi:nodetypes="ccccccc"
       inkscape:transform-center-x="-0.0041647"
       inkscape:transform-center-y="-4.0310348" /><path
       id="path21"
       style="fill:#808080;fill-opacity:1;stroke-width:1.73126"
       d="m 20.003906,57.970234 c 1.999085,0 3.998048,-1.998959 3.998048,-3.998046 l -0.04883,-7.970703 c 0,-1.999086 -1.998959,-3.998047 -3.998047,-3.998047 L -5e-7,42.001138 v 16 z"
       sodipodi:nodetypes="ccccccc"
       inkscape:transform-center-x="4.0310347"
       inkscape:transform-center-y="-0.0041648" /><rect
       style="fill:#989898;fill-opacity:1;stroke-width:1.99909"
       id="rect26"
       width="31.985416"
       height="15.958069"
       x="32"
       y="40" /><rect
       style="fill:#989898;fill-opacity:1;stroke-width:1.99909"
       id="rect27"
       width="31.985416"
       height="15.958069"
       x="64.00898"
       y="-87.979034"
       transform="rotate(90)" /><path
       id="rect28"
       style="fill:#989898;fill-opacity:1;stroke-width:1.73126"
       d="m 72,38.0082 c 0,1.99909 0,1.99909 -1.99909,1.99909 l -6.032409,0.03514 V 56 H 72 83.99453 c 1.99909,0 3.99817,-1.99909 3.99817,-3.99818 L 87.9576,40.04243 V 32.010936 H 72"
       sodipodi:nodetypes="cccccccccc" /><path
       id="path29"
       style="fill:#989898;fill-opacity:1;stroke-width:1.73126"
       d="m 121.94439,8.02037 c -1.99909,0 -1.99909,0 -1.99909,-1.999089 l -0.0351,-6.032405 H 103.95259 V 8.02037 20.014901 c 0,1.999089 1.99909,3.998177 3.99818,3.998177 l 11.95939,-0.03514 h 8.03149 V 8.02037"
       sodipodi:nodetypes="cccccccccc" /><path
       id="path30"
       style="fill:#989898;fill-opacity:1;stroke-width:1.73126"
       d="m 55.95751,90.03422 c 0,-1.99908 0,-1.99908 1.99909,-1.99908 l 6.0324,-0.0351 V 72.04243 H 55.95751 43.96298 c -1.99909,0 -3.99818,1.99909 -3.99818,3.99817 L 40,88 v 8.03149 h 15.95756"
       sodipodi:nodetypes="cccccccccc" /><path
       id="path31"
       style="fill:#989898;fill-opacity:1;stroke-width:1.73126"
       d="m 5.997302,119.97882 c 1.99909,0 1.99909,0 1.99909,1.99909 l 0.0351,6.03241 h 15.95757 v -8.0315 -11.99453 c 0,-1.99909 -1.99909,-3.99817 -3.99818,-3.99817 l -11.95939,0.0351 H 0 v 15.95756"
       sodipodi:nodetypes="cccccccccc" /><path
       id="path32"
       style="fill:#989898;fill-opacity:1;stroke-width:1.73126"
       d="m 72.024862,95.997465 v 5.997275 c 0,1.99909 -2e-6,1.99909 -1.999089,1.99909 -1.999067,0.0184 -3.998143,0.0196 -5.997266,0.0196 v 0.0156 h -0.03514 v 15.95752 c 2.022574,-0.008 4.045038,0.006 6.067546,0.0196 1.999087,0 1.999089,10e-6 1.999089,1.99909 v 5.99726 H 88.01757 L 87.98243,95.997495 Z"
       sodipodi:nodetypes="csccccccscccc" /><path
       id="path33"
       style="fill:#989898;fill-opacity:1;stroke-width:1.73126"
       d="m 127.99575,40.024861 h -5.99726 c -1.99909,0 -1.99909,-2e-6 -1.99909,-1.999089 -0.0184,-1.999067 -0.0196,-3.998143 -0.0196,-5.997266 h -0.0156 v -0.03514 h -15.95753 c 0.008,2.022574 -0.006,4.045038 -0.0196,6.067546 0,1.999087 0,1.999088 -1.99909,1.999088 h -5.997264 v 15.957569 l 32.005004,-0.03514 z"
       sodipodi:nodetypes="csccccccscccc" /><path
       id="path34"
       style="fill:#989898;fill-opacity:1;stroke-width:1.73126"
       d="m 119.99269,96.0051 v -5.99727 c 1e-5,-1.99908 1e-5,-1.99908 1.99909,-1.99908 C 123.99085,87.99035 126.00088,88 128,88 c -0.0203,-5.380034 -0.004,-10.632613 0,-16.013363 -2.02253,0.008 -4.02086,0.02328 -6.04337,0.0097 C 119.95756,71.99632 120,71.99909 120,70 v -6 h -16 l 0.0351,32.005 z"
       sodipodi:nodetypes="csccccscccc" /><path
       id="path35"
       style="fill:#989898;fill-opacity:1;stroke-width:1.73126"
       d="m 31.994862,120.01394 h 5.997268 c 1.99908,0 1.99909,0 1.99909,1.99909 0.0184,1.99906 0.0196,3.99814 0.0196,5.99726 l 0.0156,-2e-5 10e-5,0.0351 h 15.95752 c -0.008,-2.02252 0.006,-4.04499 0.0196,-6.0675 0,-1.99909 0,-1.99909 1.99909,-1.99909 H 64 v -15.95756 l -32.005012,0.0351 z"
       sodipodi:nodetypes="csccccccscccc" /><path
       id="path36"
       style="fill:#989898;fill-opacity:1;stroke-width:1.73126"
       d="m 104.03155,95.989764 v 5.997266 c 0,1.99908 0,1.99908 -1.99909,1.99908 -1.99906,0.0184 -3.99814,0.0195 -5.99726,0.0195 v 0.0156 H 96 v 15.95758 c 2.02258,-0.008 4.04504,0.006 6.06755,0.0195 1.53473,0 1.88895,0.009 1.97176,0.91366 l -0.008,7.10222 h 15.95757 v -0.0195 h 0.0351 l -0.008,-7.06319 c 0.0828,-0.90456 0.43702,-0.91365 1.97176,-0.91365 2.0225,-0.0132 4.04497,-0.0273 6.06754,-0.0195 v -15.95757 h -0.0351 v -0.0156 c -1.99912,0 -3.9982,-10e-4 -5.99726,-0.0195 -1.99909,0 -1.99909,0 -1.99909,-1.99909 v -5.997263 h -0.0351 v -0.01952 z" /><path
       id="path4"
       style="fill:#989898;fill-opacity:1;stroke-width:1.73126"
       d="m 43.996094,8.0309274 c -1.999086,0 -3.998047,1.9989596 -3.998047,3.9980466 l 0.04883,7.970703 c 0,1.999086 1.99896,3.998047 3.998047,3.998047 L 64,24 V 8 Z"
       sodipodi:nodetypes="ccccccc" /><path
       id="path5"
       style="fill:#989898;fill-opacity:1;stroke-width:1.73126"
       d="m 19.941405,7.9840484 c -2.660354,-0.012781 -5.320346,0.018483 -7.980468,0.046879 -1.9990865,0 -3.9980475,1.9989596 -3.9980475,3.9980466 l 0.04883,7.970703 c 0,1.999086 1.9989605,3.998047 3.9980475,3.998047 L 19.990234,24 c 1.999085,0 3.998047,-2.048106 3.998047,-4.047193 L 23.9414,11.982104 c 0,-1.9990858 -2.000912,-3.9980466 -4,-3.9980466 z"
       sodipodi:nodetypes="cccccccccc" /><path
       id="path6"
       style="fill:#989898;fill-opacity:1;stroke-width:1.73126"
       d="m 72.030904,20.003906 c 0,1.999086 1.998959,3.998048 3.998046,3.998048 l 7.970703,-0.04883 c 1.999086,0 3.998047,-1.998959 3.998047,-3.998047 L 88,0 H 72 Z"
       sodipodi:nodetypes="ccccccc"
       inkscape:transform-center-x="-0.0041647"
       inkscape:transform-center-y="-4.0310348" /><path
       id="path7"
       style="fill:#989898;fill-opacity:1;stroke-width:1.73126"
       d="m 20.003906,55.969096 c 1.999086,0 3.998048,-1.998959 3.998048,-3.998046 l -0.04883,-7.970703 c 0,-1.999086 -1.998959,-3.998047 -3.998047,-3.998047 L 0,40 v 16 z"
       sodipodi:nodetypes="ccccccc"
       inkscape:transform-center-x="4.0310347"
       inkscape:transform-center-y="-0.0041648" /><path
       id="path8"
       style="fill:#989898;fill-opacity:1;stroke-width:1.73126"
       d="m 23.969095,75.996094 c 0,-1.999086 -1.998959,-3.998048 -3.998046,-3.998048 l -7.970703,0.04883 c -1.999085,0 -3.998046,1.998959 -3.998046,3.998047 L 8,96 h 15.999999 z"
       sodipodi:nodetypes="ccccccc"
       inkscape:transform-center-x="0.0041645"
       inkscape:transform-center-y="4.0310352" /></g></svg>
