<?xml version="1.0" encoding="UTF-8" standalone="no"?>
<!-- Created with Inkscape (http://www.inkscape.org/) -->

<svg
   width="128"
   height="128"
   viewBox="0 0 128 128"
   version="1.1"
   id="svg1"
   xml:space="preserve"
   inkscape:export-filename="street.png"
   inkscape:export-xdpi="192"
   inkscape:export-ydpi="192"
   inkscape:version="1.3.2 (091e20e, 2023-11-25, custom)"
   sodipodi:docname="street.svg"
   xmlns:inkscape="http://www.inkscape.org/namespaces/inkscape"
   xmlns:sodipodi="http://sodipodi.sourceforge.net/DTD/sodipodi-0.dtd"
   xmlns="http://www.w3.org/2000/svg"
   xmlns:svg="http://www.w3.org/2000/svg"><sodipodi:namedview
     id="namedview1"
     pagecolor="#ffffff"
     bordercolor="#000000"
     borderopacity="0.25"
     inkscape:showpageshadow="2"
     inkscape:pageopacity="0.0"
     inkscape:pagecheckerboard="0"
     inkscape:deskcolor="#d1d1d1"
     inkscape:document-units="px"
     inkscape:zoom="5.3359375"
     inkscape:cx="47.039531"
     inkscape:cy="58.565154"
     inkscape:window-width="1920"
     inkscape:window-height="1027"
     inkscape:window-x="-8"
     inkscape:window-y="-8"
     inkscape:window-maximized="1"
     inkscape:current-layer="layer1"
     showgrid="true"><inkscape:grid
       id="grid2"
       units="px"
       originx="0"
       originy="0"
       spacingx="1"
       spacingy="1"
       empcolor="#0099e5"
       empopacity="0.30196078"
       color="#0099e5"
       opacity="0.14901961"
       empspacing="8"
       dotted="false"
       gridanglex="30"
       gridanglez="30"
       visible="true" /></sodipodi:namedview><defs
     id="defs1" /><g
     inkscape:label="Layer 1"
     inkscape:groupmode="layer"
     id="layer1"><rect
       style="fill:#808080;fill-opacity:1;stroke-width:1.99909"
       id="rect37"
       width="31.985416"
       height="15.958069"
       x="0.017562108"
       y="9.9957714" /><rect
       style="fill:#808080;fill-opacity:1;stroke-width:1.99909"
       id="rect38"
       width="31.985416"
       height="15.958069"
       x="1.9820966"
       y="-55.974724"
       transform="rotate(90)" /><path
       id="path38"
       style="fill:#808080;fill-opacity:1;stroke-width:1.73126"
       d="m 8.0139163,39.982099 c 0,1.999088 0,1.999088 -1.9990886,1.999088 l -6.03240557,0.03514 V 57.973896 H 8.0139163 20.008448 c 1.999088,0 3.998177,-1.999089 3.998177,-3.998178 L 23.971481,42.016327 V 33.984833 H 8.0139163"
       sodipodi:nodetypes="cccccccccc" /><path
       id="path39"
       style="fill:#808080;fill-opacity:1;stroke-width:1.73126"
       d="m 57.99113,41.998757 c -1.999089,0 -1.999089,0 -1.999089,-1.999088 l -0.03514,-6.032406 H 39.999333 v 8.031494 11.994531 c 0,1.999089 1.999088,3.998177 3.998177,3.998177 l 11.959391,-0.03514 h 8.031494 V 41.998757"
       sodipodi:nodetypes="cccccccccc" /><path
       id="path40"
       style="fill:#808080;fill-opacity:1;stroke-width:1.73126"
       d="m 119.92773,59.972984 c 0,-1.999088 0,-1.999088 1.99909,-1.999088 l 6.0324,-0.03514 V 41.981187 h -8.03149 -11.99453 c -1.99909,0 -3.99818,1.999089 -3.99818,3.998177 l 0.0352,11.959392 v 8.031494 h 15.95756"
       sodipodi:nodetypes="cccccccccc" /><path
       id="path41"
       style="fill:#808080;fill-opacity:1;stroke-width:1.73126"
       d="m 69.985661,57.938752 c 1.999089,0 1.999089,0 1.999089,1.999088 l 0.03514,6.032406 H 87.977458 V 57.938752 45.94422 c 0,-1.999088 -1.999089,-3.998177 -3.998177,-3.998177 l -11.959391,0.03514 h -8.031495 v 15.957565"
       sodipodi:nodetypes="cccccccccc" /><path
       id="path42"
       style="fill:#808080;fill-opacity:1;stroke-width:1.73126"
       d="m 8.0139163,65.97025 v 5.997265 c 0,1.999087 -2e-6,1.999089 -1.9990886,1.999089 -1.9990669,0.01839 -3.9981431,0.01959 -5.99726559,0.01959 v 0.01559 h -0.03514024 v 15.957524 c 2.02257373,-0.0078 4.04503773,0.0064 6.06754603,0.01959 1.9990866,0 1.9990886,2e-6 1.9990886,1.999089 v 5.997265 H 24.006625 L 23.971481,65.97025 Z"
       sodipodi:nodetypes="csccccccscccc" /><path
       id="path43"
       style="fill:#808080;fill-opacity:1;stroke-width:1.73126"
       d="m 64.007987,73.931468 h -5.997266 c -1.999087,0 -1.999089,-2e-6 -1.999089,-1.999089 -0.01839,-1.999066 -0.01959,-3.998143 -0.01959,-5.997265 h -0.01559 V 65.89997 H 40.018924 c 0.0078,2.022574 -0.0064,4.045037 -0.01959,6.067545 0,1.999087 -2e-6,1.999089 -1.999089,1.999089 H 32.00298 v 15.957568 l 32.005008,-0.03514 z"
       sodipodi:nodetypes="csccccccscccc" /><path
       id="path44"
       style="fill:#808080;fill-opacity:1;stroke-width:1.73126"
       d="m 88.012592,97.975349 v -5.997265 c 2e-6,-1.999087 2e-6,-1.999089 1.999088,-1.999089 1.999067,-0.01839 3.998144,-0.01959 5.997268,-0.01959 l -2.2e-5,-0.01559 0.03512,-9.6e-5 V 73.986191 c -2.022526,0.0078 -4.044992,-0.0064 -6.0675,-0.01959 -1.999088,0 -1.999088,0 -1.999088,-1.999089 V 65.970246 H 72.019894 l 0.03514,32.005007 z"
       sodipodi:nodetypes="csccccccscccc" /><path
       id="path45"
       style="fill:#808080;fill-opacity:1;stroke-width:1.73126"
       d="m 95.973812,89.959302 h 5.997268 c 1.99908,2e-6 1.99909,2e-6 1.99909,1.999089 0.0184,1.999066 0.0196,3.998143 0.0196,5.997267 l 0.0156,-2.2e-5 1e-4,0.03512 h 15.95752 c -0.008,-2.022526 0.006,-4.044991 0.0196,-6.067499 0,-1.999089 0,-1.999089 1.99909,-1.999089 h 5.99727 V 73.966604 l -32.005012,0.03514 z"
       sodipodi:nodetypes="csccccccscccc" /><path
       id="path46"
       style="fill:#808080;fill-opacity:1;stroke-width:1.73126"
       d="m 8.0139163,97.955666 v 5.997264 c 0,1.99909 -4e-6,1.99909 -1.9990886,1.99909 -1.9990649,0.0184 -3.9981451,0.0196 -5.99726559,0.0196 v 0.0156 h -0.03514018 v 15.95757 c 2.02257167,-0.008 4.04503967,0.006 6.06754597,0.0196 1.5347313,0 1.8889498,0.009 1.9717572,0.91365 l -0.00782,7.10223 H 23.971479 v -0.0196 h 0.03514 l -0.0078,-7.06319 c 0.0828,-0.90455 0.437025,-0.91364 1.971757,-0.91364 2.022508,-0.0132 4.044974,-0.0273 6.067546,-0.0196 v -15.95756 h -0.03514 v -0.0156 c -1.999121,0 -3.998199,-10e-4 -5.997266,-0.0196 -1.999084,0 -1.999088,0 -1.999088,-1.99909 v -5.997263 h -0.03514 v -0.01959 z" /><rect
       style="fill:#989898;fill-opacity:1;stroke-width:1.99909"
       id="rect26"
       width="31.985416"
       height="15.958069"
       x="0.017562108"
       y="8.0050106" /><rect
       style="fill:#989898;fill-opacity:1;stroke-width:1.99909"
       id="rect27"
       width="31.985416"
       height="15.958069"
       x="-0.0086638927"
       y="-55.974724"
       transform="rotate(90)" /><path
       id="rect28"
       style="fill:#989898;fill-opacity:1;stroke-width:1.73126"
       d="m 8.0139163,37.991338 c 0,1.999089 0,1.999089 -1.9990886,1.999089 l -6.03240557,0.03514 V 55.983135 H 8.0139163 20.008448 c 1.999088,0 3.998177,-1.999088 3.998177,-3.998177 L 23.971481,40.025567 V 31.994073 H 8.0139163"
       sodipodi:nodetypes="cccccccccc" /><path
       id="path29"
       style="fill:#989898;fill-opacity:1;stroke-width:1.73126"
       d="m 57.99113,40.007997 c -1.999089,0 -1.999089,0 -1.999089,-1.999089 l -0.03514,-6.032405 H 39.999333 v 8.031494 11.994531 c 0,1.999089 1.999088,3.998177 3.998177,3.998177 l 11.959391,-0.03514 h 8.031494 V 40.007997"
       sodipodi:nodetypes="cccccccccc" /><path
       id="path30"
       style="fill:#989898;fill-opacity:1;stroke-width:1.73126"
       d="m 119.92773,57.982224 c 0,-1.999089 0,-1.999089 1.99909,-1.999089 l 6.0324,-0.03514 V 39.990427 h -8.03149 -11.99453 c -1.99909,0 -3.99818,1.999088 -3.99818,3.998177 l 0.0352,11.959391 v 8.031494 h 15.95756"
       sodipodi:nodetypes="cccccccccc" /><path
       id="path31"
       style="fill:#989898;fill-opacity:1;stroke-width:1.73126"
       d="m 69.985661,55.947991 c 1.999089,0 1.999089,0 1.999089,1.999089 l 0.03514,6.032405 H 87.977458 V 55.947991 43.95346 c 0,-1.999089 -1.999089,-3.998177 -3.998177,-3.998177 l -11.959391,0.03514 h -8.031495 v 15.957564"
       sodipodi:nodetypes="cccccccccc" /><path
       id="path32"
       style="fill:#989898;fill-opacity:1;stroke-width:1.73126"
       d="m 8.0139163,63.979489 v 5.997266 c 0,1.999087 -2e-6,1.999088 -1.9990886,1.999088 -1.9990669,0.01839 -3.9981431,0.01959 -5.99726559,0.01959 v 0.01559 h -0.03514024 v 15.957525 c 2.02257373,-0.0078 4.04503773,0.0064 6.06754603,0.01959 1.9990866,0 1.9990886,2e-6 1.9990886,1.999088 v 5.997266 H 24.006625 l -0.03514,-32.005008 z"
       sodipodi:nodetypes="csccccccscccc" /><path
       id="path33"
       style="fill:#989898;fill-opacity:1;stroke-width:1.73126"
       d="m 64.007987,71.940708 h -5.997266 c -1.999087,0 -1.999089,-2e-6 -1.999089,-1.999089 -0.01839,-1.999067 -0.01959,-3.998143 -0.01959,-5.997266 h -0.01559 v -0.03514 H 40.018924 c 0.0078,2.022574 -0.0064,4.045038 -0.01959,6.067546 0,1.999087 -2e-6,1.999088 -1.999089,1.999088 H 32.00298 v 15.957569 l 32.005008,-0.03514 z"
       sodipodi:nodetypes="csccccccscccc" /><path
       id="path34"
       style="fill:#989898;fill-opacity:1;stroke-width:1.73126"
       d="m 88.012592,95.984589 v -5.997266 c 2e-6,-1.999086 2e-6,-1.999088 1.999088,-1.999088 1.999067,-0.01839 3.998144,-0.01959 5.997268,-0.01959 l -2.2e-5,-0.01559 0.03512,-9.6e-5 V 71.995431 c -2.022526,0.0078 -4.044992,-0.0064 -6.0675,-0.01959 -1.999088,0 -1.999088,0 -1.999088,-1.999089 V 63.979485 H 72.019894 l 0.03514,32.005008 z"
       sodipodi:nodetypes="csccccccscccc" /><path
       id="path35"
       style="fill:#989898;fill-opacity:1;stroke-width:1.73126"
       d="m 95.973812,87.968542 h 5.997268 c 1.99908,2e-6 1.99909,2e-6 1.99909,1.999088 0.0184,1.999067 0.0196,3.998143 0.0196,5.997268 l 0.0156,-2.2e-5 1e-4,0.03512 h 15.95752 c -0.008,-2.022526 0.006,-4.044992 0.0196,-6.0675 0,-1.999088 0,-1.999088 1.99909,-1.999088 h 5.99727 V 71.975843 l -32.005012,0.03514 z"
       sodipodi:nodetypes="csccccccscccc" /><path
       id="path36"
       style="fill:#989898;fill-opacity:1;stroke-width:1.73126"
       d="m 8.0139163,95.964906 v 5.997264 c 0,1.99909 -4e-6,1.99909 -1.9990886,1.99909 -1.9990649,0.0184 -3.9981451,0.0195 -5.99726559,0.0195 v 0.0156 h -0.03514023 v 15.95757 c 2.02257172,-0.008 4.04503972,0.006 6.06754602,0.0195 1.5347313,0 1.8889498,0.009 1.9717572,0.91365 l -0.00781,7.10223 H 23.971485 v -0.0195 h 0.03514 l -0.0078,-7.06319 c 0.08281,-0.90456 0.437025,-0.91365 1.971757,-0.91365 2.022508,-0.0132 4.044974,-0.0273 6.067546,-0.0195 V 104.0159 h -0.03514 v -0.0156 c -1.999121,0 -3.998199,-10e-4 -5.997266,-0.0195 -1.999084,0 -1.999088,0 -1.999088,-1.99909 v -5.997261 h -0.03514 v -0.01952 z" /></g></svg>
