<?xml version="1.0" encoding="UTF-8" standalone="no"?>
<!-- Created with Inkscape (http://www.inkscape.org/) -->

<svg
   width="64"
   height="64"
   viewBox="0 0 64 64"
   version="1.1"
   id="svg1"
   xml:space="preserve"
   inkscape:export-filename="tilemap.png"
   inkscape:export-xdpi="192"
   inkscape:export-ydpi="192"
   inkscape:version="1.3.2 (091e20e, 2023-11-25, custom)"
   sodipodi:docname="tilemap.svg"
   xmlns:inkscape="http://www.inkscape.org/namespaces/inkscape"
   xmlns:sodipodi="http://sodipodi.sourceforge.net/DTD/sodipodi-0.dtd"
   xmlns="http://www.w3.org/2000/svg"
   xmlns:svg="http://www.w3.org/2000/svg"><sodipodi:namedview
     id="namedview1"
     pagecolor="#ffffff"
     bordercolor="#000000"
     borderopacity="0.25"
     inkscape:showpageshadow="2"
     inkscape:pageopacity="0.0"
     inkscape:pagecheckerboard="0"
     inkscape:deskcolor="#d1d1d1"
     inkscape:document-units="px"
     inkscape:zoom="10.671875"
     inkscape:cx="15.180088"
     inkscape:cy="30.407029"
     inkscape:window-width="1920"
     inkscape:window-height="1027"
     inkscape:window-x="-8"
     inkscape:window-y="-8"
     inkscape:window-maximized="1"
     inkscape:current-layer="layer1"
     showgrid="true"><inkscape:grid
       id="grid2"
       units="px"
       originx="0"
       originy="0"
       spacingx="1"
       spacingy="1"
       empcolor="#0099e5"
       empopacity="0.30196078"
       color="#0099e5"
       opacity="0.14901961"
       empspacing="8"
       dotted="false"
       gridanglex="30"
       gridanglez="30"
       visible="true" /></sodipodi:namedview><defs
     id="defs1" /><g
     inkscape:label="Layer 1"
     inkscape:groupmode="layer"
     id="layer1"><path
       id="path40"
       style="fill:#504416;fill-opacity:0.69817072;stroke-width:4"
       d="m 24,3 v 2 4 4 12 c 0,1.107995 -0.892005,2 -2,2 H 10 C 8.892005,27 8,26.107995 8,25 V 19 17 13 C 8,11.892004 7.107995,11 6,11 H 2 0 v 16 h 5.974609 c 1.107995,0 2,0.892005 2,2 v 6 h 0.02539 v 6 c 0,1.104048 0.885776,1.993674 1.988281,2 0.0039,2.3e-5 0.0078,0 0.01172,0 h 4 2 2 3.988281 0.02344 3.988281 4 8 c 1.107994,0 2,0.892006 2,2 v 12 c 0,1.107994 -0.892006,2 -2,2 h -6 -2 -4 c -1.034667,0 -1.880792,0.777999 -1.988281,1.783203 V 65 67 h 15.988281 v -6 c 0,-1.107994 0.892006,-2 2,-2 h 6 2 4 c 1.107994,0 2,-0.892006 2,-2 V 51 49 41 29 c 0,-1.107994 0.892006,-2 2,-2 h 6 V 11 h -2 -4 -4 -12 c -1.107996,0 -2,-0.892004 -2,-2 V 3 Z" /><path
       id="path39"
       style="fill:#786721;fill-opacity:0.7012195;stroke-width:4"
       d="m 23.999998,2 v 2 4 4 12 c 0,1.107995 -0.892005,2 -2,2 h -12 c -1.107995,0 -2,-0.892005 -2,-2 v -6 -2 -4 c 0,-1.107996 -0.892005,-2 -2,-2 h -4 -2 v 16 h 5.974609 c 1.107995,0 2,0.892005 2,2 v 6 h 0.02539 v 6 c 0,1.104048 0.885776,1.993674 1.988281,2 0.0039,2.3e-5 0.0078,0 0.01172,0 h 4 2 2 3.988281 0.02344 H 26 h 4 8 c 1.107994,0 2,0.892006 2,2 v 12 c 0,1.107994 -0.892006,2 -2,2 h -6 -2 -4 c -1.034667,0 -1.880792,0.777999 -1.988281,1.783203 V 64 66 H 40 v -6 c 0,-1.107994 0.892006,-2 2,-2 h 6 2 4 c 1.107994,0 2,-0.892006 2,-2 V 50 48 40 28 c 0,-1.107994 0.892006,-2 2,-2 h 6 V 10 H 62 58 54 42 C 40.892004,10 40,9.1079956 40,8 V 2 Z" /><path
       id="path41"
       style="fill:#a0892c;fill-opacity:1;stroke-width:4"
       d="m 23.999998,1 v 2 4 4 12 c 0,1.107995 -0.892005,2 -2,2 h -12 c -1.107995,0 -2,-0.892005 -2,-2 v -6 -2 -4 c 0,-1.107996 -0.892005,-2 -2,-2 h -4 -2 v 16 h 5.974609 c 1.107995,0 2,0.892005 2,2 v 6 h 0.02539 v 6 c 0,1.104048 0.885776,1.993674 1.988281,2 0.0039,2.3e-5 0.0078,0 0.01172,0 h 4 2 2 3.988281 0.02344 H 26 h 4 8 c 1.107994,0 2,0.892006 2,2 v 12 c 0,1.107994 -0.892006,2 -2,2 h -6 -2 -4 c -1.034667,0 -1.880792,0.777999 -1.988281,1.783203 V 63 65 H 40 v -6 c 0,-1.107994 0.892006,-2 2,-2 h 6 2 4 c 1.107994,0 2,-0.892006 2,-2 V 49 47 39 27 c 0,-1.107994 0.892006,-2 2,-2 h 6 V 9 H 62 58 54 42 C 40.892004,9 40,8.1079956 40,7 V 1 Z" /><path
       id="rect3"
       style="fill:#6b9857;fill-opacity:1;stroke-width:4"
       d="M 24 0 L 24 2 L 24 6 L 24 10 L 24 22 C 24 23.107995 23.107995 24 22 24 L 10 24 C 8.8920055 24 8 23.107995 8 22 L 8 16 L 8 14 L 8 10 C 8 8.8920043 7.1079957 8 6 8 L 2 8 L 0 8 L 0 24 L 5.9746094 24 C 7.0826039 24 7.9746094 24.892005 7.9746094 26 L 7.9746094 32 L 8 32 L 8 38 C 8 39.104048 8.8857764 39.993674 9.9882812 40 C 9.9922239 40.000023 9.9960518 40 10 40 L 14 40 L 16 40 L 18 40 L 21.988281 40 L 22.011719 40 L 26 40 L 30 40 L 38 40 C 39.107994 40 40 40.892006 40 42 L 40 54 C 40 55.107994 39.107994 56 38 56 L 32 56 L 30 56 L 26 56 C 24.965333 56 24.119208 56.777999 24.011719 57.783203 L 24.011719 62 L 24.011719 64 L 40 64 L 40 58 C 40 56.892006 40.892006 56 42 56 L 48 56 L 50 56 L 54 56 C 55.107994 56 56 55.107994 56 54 L 56 48 L 56 46 L 56 38 L 56 26 C 56 24.892006 56.892006 24 58 24 L 64 24 L 64 8 L 62 8 L 58 8 L 54 8 L 42 8 C 40.892004 8 40 7.1079956 40 6 L 40 0 L 24 0 z " /><rect
       style="fill:#882222;fill-opacity:0.798561"
       id="rect37"
       width="16"
       height="16"
       x="-42.385323"
       y="51.298672"
       ry="2" /></g></svg>
